<?xml version="1.0" encoding="UTF-8"?>
<!--Generator: Apple Native CoreSVG 232.5-->
<!DOCTYPE svg
PUBLIC "-//W3C//DTD SVG 1.1//EN"
       "http://www.w3.org/Graphics/SVG/1.1/DTD/svg11.dtd">
<svg version="1.1" xmlns="http://www.w3.org/2000/svg" xmlns:xlink="http://www.w3.org/1999/xlink" width="51.9376" height="40.2511">
 <g>
  <rect height="40.2511" opacity="0" width="51.9376" x="0" y="0"/>
  <path d="M26.1231 23.6377C27.1065 23.6377 28.1045 23.1738 29.003 22.2754L50.085 1.60643C49.3047 0.604486 47.708 0.0839829 45.3614 0.0839829L6.42385 0.0839829C4.25003 0.0839829 2.77444 0.544918 2.00393 1.43847L23.2608 22.2754C24.1172 23.1494 25.168 23.6377 26.1231 23.6377ZM0.750971 37.2871L18.2578 20.4678L0.631833 3.26175C0.21289 3.89261 0 5.01176 0 6.64359L0 33.6846C0 35.418 0.265622 36.6387 0.750971 37.2871ZM6.57622 40.2511L45.5137 40.2511C47.6876 40.2511 49.1387 39.7901 49.9092 38.9034L32.3946 22.0167L30.4844 23.8985C29.1163 25.1934 27.6348 25.8731 26.1231 25.8731C24.6221 25.8731 23.1406 25.1934 21.7793 23.8985L19.8447 22.0167L2.20315 39.0372C2.97269 39.8428 4.4434 40.2511 6.57622 40.2511ZM51.2813 37.087C51.7247 36.4493 51.9376 35.3233 51.9376 33.6846L51.9376 6.64359C51.9376 5.13089 51.7598 4.06448 51.4005 3.49319L33.9991 20.4678Z" fill="#ffffff"/>
 </g>
</svg>
