<?xml version="1.0" encoding="UTF-8"?>
<!--Generator: Apple Native CoreSVG 232.5-->
<!DOCTYPE svg
PUBLIC "-//W3C//DTD SVG 1.1//EN"
       "http://www.w3.org/Graphics/SVG/1.1/DTD/svg11.dtd">
<svg version="1.1" xmlns="http://www.w3.org/2000/svg" xmlns:xlink="http://www.w3.org/1999/xlink" width="28.8063" height="22.2985">
 <g>
  <rect height="22.2985" opacity="0" width="28.8063" x="0" y="0"/>
  <path d="M5.14551 17.8702L5.48536 19.2208C5.91407 20.9845 6.77784 21.7325 8.50198 21.7325L20.3306 21.7325C22.0582 21.7325 22.9186 20.9913 23.3507 19.2208L23.6905 17.8702ZM4.87451 16.7691L23.9649 16.7691L26.005 8.47705L25.0919 7.82422L20.897 10.5372C20.2711 10.9268 19.753 10.8345 19.3189 10.2676L14.9439 4.46579L13.8921 4.45896L9.37161 10.4097C9.00589 10.8853 8.55082 10.9302 8.03911 10.6109L3.74316 7.83936L2.81737 8.43456ZM2.58351 9.28376C4.00149 9.28376 5.1636 8.12701 5.1636 6.69683C5.1636 5.28569 4.00149 4.11674 2.58351 4.11674C1.15674 4.11674 0 5.28227 0 6.69683C0 8.12701 1.16016 9.28376 2.58351 9.28376ZM14.4224 5.1636C15.837 5.1636 17.0025 4.00686 17.0025 2.58009C17.0025 1.16895 15.837 0 14.4224 0C12.9922 0 11.8389 1.16553 11.8389 2.58009C11.8389 4.00686 12.9956 5.1636 14.4224 5.1636ZM26.2315 9.28376C27.6461 9.28376 28.8063 8.12701 28.8063 6.69683C28.8063 5.28227 27.6495 4.11674 26.2315 4.11674C24.8082 4.11674 23.6514 5.28569 23.6514 6.69683C23.6514 8.12701 24.8082 9.28376 26.2315 9.28376Z" fill="#ffffff" fill-opacity="0.85"/>
 </g>
</svg>
