<?xml version="1.0" encoding="UTF-8"?>
<!--Generator: Apple Native CoreSVG 232.5-->
<!DOCTYPE svg
PUBLIC "-//W3C//DTD SVG 1.1//EN"
       "http://www.w3.org/Graphics/SVG/1.1/DTD/svg11.dtd">
<svg version="1.1" xmlns="http://www.w3.org/2000/svg" xmlns:xlink="http://www.w3.org/1999/xlink" width="23.1885" height="21.5923">
 <g>
  <rect height="21.5923" opacity="0" width="23.1885" x="0" y="0"/>
  <path d="M0 7.33548C0 12.272 4.56005 17.1143 11.023 21.3858C11.1914 21.4918 11.417 21.5923 11.5943 21.5923C11.7715 21.5923 11.9971 21.4918 12.1602 21.3858C18.6285 17.1143 23.1885 12.272 23.1885 7.33548C23.1885 3.34816 20.4331 0.489756 16.7329 0.489756C14.5977 0.489756 12.5645 1.69581 11.5943 3.58105C10.6309 1.69922 8.59084 0.489756 6.45559 0.489756C2.75538 0.489756 0 3.34816 0 7.33548ZM0.910687 7.33548C0.910687 3.83354 3.25638 1.39166 6.44875 1.39166C8.67336 1.39166 10.2114 2.76715 11.1069 4.40092C11.2783 4.68706 11.4068 4.78618 11.5943 4.78618C11.7818 4.78618 11.9033 4.68364 12.0728 4.40092C12.9942 2.77398 14.5098 1.39166 16.7398 1.39166C19.9321 1.39166 22.2778 3.83354 22.2778 7.33548C22.2778 11.9556 17.5332 16.7188 11.7627 20.5694C11.6934 20.6196 11.6431 20.6543 11.5943 20.6543C11.5454 20.6543 11.4951 20.6196 11.4292 20.5694C5.65532 16.7188 0.910687 11.9556 0.910687 7.33548Z" fill="#fdc107"/>
 </g>
</svg>
