<?xml version="1.0" encoding="UTF-8"?>
<!--Generator: Apple Native CoreSVG 232.5-->
<!DOCTYPE svg
PUBLIC "-//W3C//DTD SVG 1.1//EN"
       "http://www.w3.org/Graphics/SVG/1.1/DTD/svg11.dtd">
<svg version="1.1" xmlns="http://www.w3.org/2000/svg" xmlns:xlink="http://www.w3.org/1999/xlink" width="51.8057" height="51.878">
 <g>
  <rect height="51.878" opacity="0" width="51.8057" x="0" y="0"/>
  <path d="M25.9063 8.03815C26.4385 8.03815 26.8458 7.6309 26.8458 7.09181L26.8458 0.946337C26.8458 0.389671 26.4385 0 25.9063 0C25.3672 0 24.9599 0.389671 24.9599 0.946337L24.9599 7.09181C24.9599 7.6309 25.3672 8.03815 25.9063 8.03815ZM38.5371 13.2891C38.9277 13.6378 39.4795 13.6446 39.8878 13.2891L44.2383 8.93855C44.587 8.55474 44.587 7.97854 44.2383 7.5879C43.8545 7.23925 43.2851 7.23925 42.8945 7.5879L38.5371 11.9453C38.1885 12.3359 38.1885 12.9053 38.5371 13.2891ZM43.792 25.9268C43.792 26.459 44.1885 26.8663 44.7207 26.8663L50.8662 26.8663C51.416 26.8663 51.8057 26.459 51.8057 25.9268C51.8057 25.3945 51.416 24.9804 50.8662 24.9804L44.7207 24.9804C44.1885 24.9804 43.792 25.3945 43.792 25.9268ZM38.5371 38.5644C38.1885 38.9551 38.1885 39.5069 38.5371 39.9083L42.8945 44.2725C43.2851 44.5967 43.8545 44.5899 44.2383 44.2657C44.587 43.8574 44.587 43.3057 44.2383 42.9218L39.8809 38.5644C39.4795 38.2226 38.9277 38.2226 38.5371 38.5644ZM25.9063 43.8154C25.3672 43.8154 24.9599 44.2227 24.9599 44.7549L24.9599 50.9072C24.9599 51.4395 25.3672 51.8467 25.9063 51.8467C26.4385 51.8467 26.8458 51.4395 26.8458 50.9072L26.8458 44.7549C26.8458 44.2227 26.4385 43.8154 25.9063 43.8154ZM13.2686 38.5644C12.878 38.2226 12.3193 38.2226 11.9179 38.5644L7.56739 42.915C7.23631 43.2988 7.23631 43.8506 7.56055 44.2588C7.96193 44.5831 8.52056 44.5899 8.9112 44.2657L13.2618 39.9083C13.6104 39.5069 13.6104 38.9551 13.2686 38.5644ZM8.03131 25.9268C8.03131 25.3945 7.61722 24.9804 7.08497 24.9804L0.9395 24.9804C0.389671 24.9804 0 25.3945 0 25.9268C0 26.459 0.389671 26.8663 0.9395 26.8663L7.08497 26.8663C7.61722 26.8663 8.03131 26.459 8.03131 25.9268ZM13.2618 13.2891C13.6104 12.9121 13.6104 12.3467 13.2686 11.9453L8.91804 7.5879C8.53423 7.24608 7.97561 7.23925 7.57422 7.5879C7.24315 7.97854 7.24315 8.55474 7.56739 8.93171L11.9179 13.2891C12.3193 13.6378 12.8711 13.6378 13.2618 13.2891Z" fill="#ffffff"/>
  <path d="M25.8467 37.4112C32.1241 37.4112 37.3243 32.211 37.3243 25.9268C37.3243 19.6357 32.1241 14.4355 25.8467 14.4355C19.5693 14.4355 14.3867 19.6357 14.3867 25.9268C14.3867 32.211 19.5693 37.4112 25.8467 37.4112Z" fill="#ffffff"/>
 </g>
</svg>
