<?xml version="1.0" encoding="UTF-8"?>
<!--Generator: Apple Native CoreSVG 232.5-->
<!DOCTYPE svg
PUBLIC "-//W3C//DTD SVG 1.1//EN"
       "http://www.w3.org/Graphics/SVG/1.1/DTD/svg11.dtd">
<svg version="1.1" xmlns="http://www.w3.org/2000/svg" xmlns:xlink="http://www.w3.org/1999/xlink" width="22.6617" height="17.3035">
 <g>
  <rect height="17.3035" opacity="0" width="22.6617" x="0" y="0"/>
  <path d="M2.63049 17.2895L20.0242 17.2895C21.7586 17.2895 22.6617 16.368 22.6617 14.6656L22.6617 2.62658C22.6617 0.924222 21.7586 0 20.0242 0L2.63049 0C0.905864 0 0 0.90313 0 2.62658L0 14.6656C0 16.3891 0.905864 17.2895 2.63049 17.2895ZM2.65705 16.568C1.39222 16.568 0.72855 15.9027 0.72855 14.627L0.72855 2.66525C0.72855 1.38948 1.39222 0.72855 2.65705 0.72855L20.0047 0.72855C21.2316 0.72855 21.9332 1.38948 21.9332 2.66525L21.9332 14.627C21.9332 15.9027 21.2316 16.568 20.0047 16.568Z" fill="#ffc107"/>
 </g>
</svg>
