<?xml version="1.0" encoding="UTF-8"?>
<!--Generator: Apple Native CoreSVG 232.5-->
<!DOCTYPE svg
PUBLIC "-//W3C//DTD SVG 1.1//EN"
       "http://www.w3.org/Graphics/SVG/1.1/DTD/svg11.dtd">
<svg version="1.1" xmlns="http://www.w3.org/2000/svg" xmlns:xlink="http://www.w3.org/1999/xlink" width="20.8931" height="29.5102">
 <g>
  <rect height="29.5102" opacity="0" width="20.8931" x="0" y="0"/>
  <path d="M0 15.5312C0 21.3843 4.60743 26.0005 10.4483 26.0005C16.2891 26.0005 20.8931 21.3843 20.8931 15.5312C20.8931 15.2617 20.7066 15.0718 20.4336 15.0718C20.1587 15.0718 19.9824 15.2617 19.9824 15.5312C19.9824 20.8867 15.7915 25.0986 10.4483 25.0986C5.10501 25.0986 0.910687 20.8867 0.910687 15.5312C0.910687 10.2232 5.10501 6.05862 10.4483 6.05862C11.8154 6.05862 13.1919 6.21975 14.1757 6.49611L9.20754 11.542C9.10353 11.6406 9.05861 11.7529 9.05861 11.895C9.05861 12.1401 9.24514 12.3354 9.52201 12.3354C9.6602 12.3354 9.7603 12.2905 9.84331 12.2041L15.2681 6.64942C15.4702 6.43311 15.5293 6.30323 15.5293 6.17187C15.5293 6.03515 15.4546 5.88964 15.2681 5.70311L9.8521 0.134772C9.76909 0.044924 9.68314 0 9.51322 0C9.23635 0 9.05861 0.202158 9.05861 0.447288C9.05861 0.589383 9.10353 0.701693 9.20412 0.800329L13.8837 5.55759C13.0117 5.33884 11.7642 5.14793 10.4483 5.14793C4.60743 5.14793 0 9.72558 0 15.5312Z" fill="#fdc107"/>
 </g>
</svg>
