<?xml version="1.0" encoding="UTF-8"?>
<!--Generator: Apple Native CoreSVG 232.5-->
<!DOCTYPE svg
PUBLIC "-//W3C//DTD SVG 1.1//EN"
       "http://www.w3.org/Graphics/SVG/1.1/DTD/svg11.dtd">
<svg version="1.1" xmlns="http://www.w3.org/2000/svg" xmlns:xlink="http://www.w3.org/1999/xlink" width="53.9434" height="53.1891">
 <g>
  <rect height="53.1891" opacity="0" width="53.9434" x="0" y="0"/>
  <path d="M26.9629 50.3968C27.7383 50.3968 28.542 50.3656 29.2891 50.264L30.5225 52.6263C30.7451 53.0824 31.0645 53.2455 31.6953 53.1722C32.2705 53.1029 32.4571 52.8499 32.5371 52.2503L32.9346 49.6302C34.419 49.2708 35.8965 48.7191 37.2725 48.055L39.2061 49.7865C39.5996 50.138 39.9219 50.2113 40.4971 49.9466C40.9463 49.6996 41.0957 49.3841 40.9737 48.7601L40.4512 46.2239C41.7227 45.3577 42.917 44.3763 43.9961 43.2269L46.3897 44.2269C46.877 44.4427 47.1993 44.4369 47.6631 43.8998C48.0957 43.4886 48.0498 43.1595 47.7432 42.6507L46.3496 40.4105C47.2578 39.1634 48.0547 37.7943 48.6514 36.429L51.3028 36.558C51.8848 36.5892 52.169 36.3812 52.336 35.848C52.5313 35.3079 52.4131 34.9857 51.9707 34.6302L49.9258 32.9857C50.3311 31.5257 50.5752 29.9818 50.6973 28.3998L53.1885 27.6195C53.7705 27.4242 53.9434 27.1361 53.9434 26.5824C53.9434 26.0286 53.7705 25.723 53.1885 25.5384L50.6973 24.765C50.5752 23.1829 50.3135 21.6458 49.9258 20.1791L51.9707 18.5345C52.3536 18.1966 52.4786 17.9163 52.336 17.3411C52.169 16.8079 51.8848 16.5999 51.3028 16.6312L48.6514 16.7288C48.0195 15.3284 47.2578 13.9906 46.3496 12.7474L47.7432 10.5072C48.0323 10.0296 48.0713 9.70051 47.6631 9.28937C47.1993 8.75226 46.877 8.75324 46.3897 8.96222L43.9961 9.92024C42.917 8.81282 41.7227 7.82455 40.4512 6.95834L40.9737 4.42903C41.1026 3.79817 40.9463 3.48273 40.4971 3.24249C39.9219 2.95343 39.6172 3.00909 39.2061 3.38508L37.2725 5.09212C35.8965 4.45638 34.419 3.9183 32.9346 3.55209L32.5371 0.938793C32.4571 0.339182 32.2285 0.086244 31.6533 0.0169059C31.0645-0.0563363 30.7383 0.106754 30.5225 0.538399L29.2891 2.91829C28.542 2.83431 27.7383 2.79232 26.9629 2.79232C26.2158 2.79232 25.4541 2.83431 24.6719 2.91829L23.4492 0.538399C23.2158 0.106754 22.9072-0.0563363 22.2656 0.0169059C21.708 0.086244 21.5147 0.339182 21.4238 0.938793L21.0371 3.51693C19.5527 3.9183 18.0645 4.41439 16.6993 5.09212L14.7481 3.40265C14.3369 3.00909 14.0147 2.97784 13.4746 3.24249C13.0078 3.48273 12.8516 3.79817 12.9981 4.42903L13.5029 6.95834C12.2383 7.82455 11.0371 8.81282 9.97562 9.92024L7.58205 8.96222C7.07716 8.75324 6.76172 8.75226 6.29786 9.28937C5.88282 9.70051 5.9043 10.0296 6.19336 10.4896L7.62208 12.7474C6.72072 13.9906 5.9346 15.3284 5.30276 16.7288L2.65822 16.6312C2.07618 16.5999 1.82031 16.8079 1.61816 17.3411C1.40527 17.9163 1.54786 18.1615 2.00098 18.5345L4.04592 20.1791C3.65822 21.6458 3.37893 23.1829 3.27053 24.723L0.765634 25.5384C0.201178 25.723 0 25.9935 0 26.5824C0 27.1536 0.201178 27.4242 0.765634 27.6195L3.27053 28.4173C3.37893 29.9818 3.62307 31.5257 4.04592 32.9857L2.00098 34.6302C1.58301 34.9437 1.44727 35.2484 1.61816 35.848C1.78516 36.3812 2.07618 36.5892 2.65822 36.558L5.30276 36.429C5.91702 37.7943 6.72072 39.1634 7.58693 40.4105L6.22852 42.6507C5.9043 43.1595 5.86524 43.4886 6.29786 43.8998C6.76172 44.4369 7.07716 44.4427 7.58205 44.2269L9.97562 43.2269C11.0371 44.3763 12.2383 45.3577 13.5029 46.2239L12.9981 48.7601C12.8584 49.3841 13.0078 49.6996 13.4746 49.9466C14.0322 50.2113 14.3369 50.138 14.7481 49.7865L16.6641 48.055C18.0645 48.7191 19.5527 49.2708 21.0371 49.6654L21.4238 52.2503C21.5147 52.8499 21.708 53.1029 22.3008 53.1722C22.9072 53.2455 23.209 53.0824 23.4492 52.6263L24.6719 50.264C25.3946 50.3656 26.2158 50.3968 26.9629 50.3968ZM26.9629 48.6614C14.7442 48.6614 5.20518 38.9173 5.20518 26.5892C5.20518 14.2543 14.7442 4.52775 26.9629 4.52775C39.1816 4.52775 48.7558 14.2543 48.7558 26.5892C48.7558 38.9173 39.1816 48.6614 26.9629 48.6614ZM23.6572 22.5609L25.084 21.7308L15.9991 6.04137L14.5449 6.8373ZM32.0469 27.2484L50.2138 27.2484L50.207 25.6107L32.0469 25.6107ZM25.4072 31.3666L23.9873 30.5228L14.5645 46.2366L16.0118 47.0462ZM27.002 32.1136C30.0606 32.1136 32.5303 29.6439 32.5303 26.596C32.5303 23.5306 30.0606 21.0608 27.002 21.0608C23.9541 21.0608 21.4844 23.5306 21.4844 26.596C21.4844 29.6439 23.9541 32.1136 27.002 32.1136ZM27.002 30.4114C24.8604 30.4114 23.1866 28.7308 23.1866 26.596C23.1866 24.4437 24.8604 22.7631 27.002 22.7631C29.1543 22.7631 30.8281 24.4437 30.8281 26.596C30.8281 28.7308 29.1543 30.4114 27.002 30.4114Z" fill="#ffffff" fill-opacity="0.85"/>
 </g>
</svg>
