<?xml version="1.0" encoding="UTF-8"?>
<!--Generator: Apple Native CoreSVG 232.5-->
<!DOCTYPE svg
PUBLIC "-//W3C//DTD SVG 1.1//EN"
       "http://www.w3.org/Graphics/SVG/1.1/DTD/svg11.dtd">
<svg version="1.1" xmlns="http://www.w3.org/2000/svg" xmlns:xlink="http://www.w3.org/1999/xlink" width="47.8887" height="47.8956">
 <g>
  <rect height="47.8956" opacity="0" width="47.8887" x="0" y="0"/>
  <path d="M23.9356 47.8712C37.1016 47.8712 47.8887 37.0772 47.8887 23.9356C47.8887 10.7871 37.0948 0 23.9287 0C10.7871 0 0 10.7871 0 23.9356C0 37.0772 10.794 47.8712 23.9356 47.8712Z" fill="#ffffff" fill-opacity="0.85"/>
  <path d="M18.5791 40.0635C17.5127 40.0635 16.7207 39.4463 16.7452 38.3624L17.0381 22.501C17.0381 21.96 16.8887 21.6573 16.4317 21.4444C14.5977 20.6036 14.0029 19.6963 14.1074 17.2696L14.4805 8.74711C14.5225 8.21781 14.8184 7.88675 15.3448 7.88675C15.8955 7.88675 16.1846 8.22464 16.1846 8.7891L16.1153 17.0811C16.1153 17.5977 16.4043 17.8868 16.8438 17.8868C17.2686 17.8868 17.6035 17.5977 17.6035 17.1055L17.7149 8.55179C17.7149 8.00492 18.0703 7.69827 18.5791 7.69827C19.1055 7.69827 19.4502 8.00492 19.4502 8.55179L19.5655 17.1055C19.5655 17.5977 19.9073 17.8868 20.3252 17.8868C20.7256 17.8868 21.0499 17.5977 21.0499 17.0811L20.9805 8.7891C20.9805 8.22464 21.2872 7.88675 21.7959 7.88675C22.3467 7.88675 22.629 8.21781 22.6602 8.74711L23.0752 17.2696C23.1973 19.6963 22.5606 20.6036 20.751 21.4444C20.294 21.6573 20.1338 21.96 20.1338 22.501L20.4131 38.3624C20.4444 39.4463 19.67 40.0635 18.5791 40.0635ZM28.1973 28.752C28.2393 27.9688 27.9776 27.4727 27.5001 27.0957L26.9405 26.6504C26.25 26.1026 25.877 25.5244 25.877 24.4004L25.877 23.3077C25.877 17.292 27.2501 11.6729 29.5626 8.47465C29.8965 7.95609 30.1993 7.69827 30.6768 7.69827C31.1192 7.69827 31.5089 7.96292 31.5089 8.60746L31.5089 38.3477C31.5089 39.46 30.7413 40.0635 29.6436 40.0635C28.584 40.0635 27.7325 39.4463 27.7921 38.0782Z" fill="#1e1e1e"/>
 </g>
</svg>
