<?xml version="1.0" encoding="UTF-8"?>
<!--Generator: Apple Native CoreSVG 232.5-->
<!DOCTYPE svg
PUBLIC "-//W3C//DTD SVG 1.1//EN"
       "http://www.w3.org/Graphics/SVG/1.1/DTD/svg11.dtd">
<svg version="1.1" xmlns="http://www.w3.org/2000/svg" xmlns:xlink="http://www.w3.org/1999/xlink" width="40.0452" height="50.4836">
 <g>
  <rect height="50.4836" opacity="0" width="40.0452" x="0" y="0"/>
  <path d="M20.0011 50.4836C27.8039 50.4836 34.1047 44.1828 34.1047 36.3693C34.1047 28.5665 27.8039 22.2481 20.0011 22.2481C12.1876 22.2481 5.90437 28.5665 5.90437 36.3693C5.90437 44.1828 12.1876 50.4836 20.0011 50.4836ZM15.547 44.0539C15.0763 44.4035 14.5216 44.047 14.7296 43.4474L16.4347 38.1984L11.9425 34.9825C11.4571 34.6466 11.6729 33.9601 12.2823 33.9601L17.7999 33.9737L19.5021 28.7003C19.6857 28.1534 20.3478 28.1534 20.5138 28.7003L22.216 33.9737L27.7335 33.9601C28.3781 33.9601 28.464 34.6886 28.091 34.9581L23.5988 38.1984L25.3214 43.4474C25.5119 44.047 24.9748 44.4035 24.4689 44.0539L19.9904 40.7892ZM7.24223 26.2247C9.44146 23.4434 12.544 21.4122 16.0997 20.5528L6.46388 0.468796L0.16602 10.2413C-0.0449273 10.5772-0.0517639 11.004 0.127932 11.3223ZM14.0929 10.9444L25.9513 10.9444L31.1828 0.186515L8.86138 0.186515ZM23.9445 20.5528C27.507 21.4297 30.5676 23.4786 32.7844 26.2423L39.9231 11.3223C40.096 11.004 40.0891 10.5772 39.8782 10.2413L33.5803 0.468796Z" fill="#ffffff"/>
 </g>
</svg>
