<?xml version="1.0" encoding="UTF-8"?>
<!--Generator: Apple Native CoreSVG 232.5-->
<!DOCTYPE svg
PUBLIC "-//W3C//DTD SVG 1.1//EN"
       "http://www.w3.org/Graphics/SVG/1.1/DTD/svg11.dtd">
<svg version="1.1" xmlns="http://www.w3.org/2000/svg" xmlns:xlink="http://www.w3.org/1999/xlink" width="25.0293" height="25.0435">
 <g>
  <rect height="25.0435" opacity="0" width="25.0293" x="0" y="0"/>
  <path d="M11.3081 25.0435L13.7212 25.0435C14.4087 25.0435 14.8638 24.6651 15.0244 23.9458L15.6152 21.4273C15.9595 21.2949 16.3179 21.1646 16.6504 21.0308L18.857 22.4097C19.461 22.8008 20.0503 22.7432 20.5337 22.2598L22.2315 20.5654C22.7324 20.0733 22.7935 19.4737 22.4043 18.8609L21.0166 16.6699C21.1538 16.3218 21.2842 15.9878 21.4097 15.6362L23.9351 15.042C24.6543 14.8814 25.0293 14.4263 25.0293 13.7388L25.0293 11.3272C25.0293 10.6431 24.6543 10.188 23.9351 10.0274L21.4165 9.43312C21.2842 9.07325 21.1504 8.72706 21.0234 8.39258L22.4024 6.1914C22.7969 5.57861 22.7427 4.98926 22.2383 4.50586L20.5337 2.80811C20.0469 2.32276 19.4658 2.25831 18.8672 2.64258L16.6504 4.04054C16.3213 3.89454 15.9663 3.77295 15.6152 3.64063L15.0244 1.11181C14.8638 0.383788 14.4087 0.0141591 13.7212 0.0141591L11.3081 0.0141591C10.6206 0.0141591 10.1655 0.383788 10.0015 1.11181L9.41066 3.63379C9.04884 3.76612 8.70801 3.8877 8.36328 4.03712L6.15332 2.64258C5.5459 2.25831 4.96143 2.31934 4.47461 2.80811L2.77344 4.50586C2.27784 4.98926 2.22022 5.57861 2.60938 6.1914L3.99366 8.39258C3.86133 8.72706 3.73633 9.07325 3.60401 9.43312L1.09423 10.0274C0.375 10.188 0 10.6431 0 11.3272L0 13.7388C0 14.4263 0.375 14.8814 1.09423 15.042L3.61084 15.6362C3.73633 15.9878 3.85792 16.3218 4.0005 16.6699L2.61622 18.8609C2.21485 19.4737 2.28809 20.0733 2.78028 20.5654L4.47461 22.2598C4.95801 22.7432 5.55957 22.8008 6.16357 22.4097L8.3667 21.0308C8.71143 21.1646 9.04884 21.2949 9.41066 21.4273L10.0015 23.9458C10.1655 24.6651 10.6206 25.0435 11.3081 25.0435ZM12.5278 16.9478C10.0982 16.9478 8.08693 14.9419 8.08693 12.5122C8.08693 10.1123 10.1069 8.10109 12.5278 8.10109C14.9399 8.10109 16.9512 10.1123 16.9512 12.5122C16.9512 14.9419 14.9399 16.9478 12.5278 16.9478Z" fill="#ffffff" fill-opacity="0.85"/>
 </g>
</svg>
