<?xml version="1.0" encoding="UTF-8"?>
<!--Generator: Apple Native CoreSVG 232.5-->
<!DOCTYPE svg
PUBLIC "-//W3C//DTD SVG 1.1//EN"
       "http://www.w3.org/Graphics/SVG/1.1/DTD/svg11.dtd">
<svg version="1.1" xmlns="http://www.w3.org/2000/svg" xmlns:xlink="http://www.w3.org/1999/xlink" width="29.9732" height="23.9622">
 <g>
  <rect height="23.9622" opacity="0" width="29.9732" x="0" y="0"/>
  <path d="M3.41963 23.2411L26.5535 23.2411C28.8011 23.2411 29.9732 22.0396 29.9732 19.8265L29.9732 6.43401C29.9732 4.22094 28.8011 3.02301 26.5535 3.02301L22.7216 3.02301C21.6638 3.02301 21.4048 2.95699 20.733 2.21254L19.626 0.969419C18.9455 0.225475 18.4352 0 17.2281 0L12.4277 0C11.2115 0 10.7103 0.225475 10.0207 0.969419L8.91365 2.21254C8.26924 2.92601 7.97014 3.02301 6.9342 3.02301L3.41963 3.02301C1.17762 3.02301 0 4.22094 0 6.43401L0 19.8265C0 22.0396 1.17762 23.2411 3.41963 23.2411ZM3.45416 22.294C1.86269 22.294 0.947115 21.4383 0.947115 19.7798L0.947115 6.48428C0.947115 4.82578 1.86269 3.97012 3.45416 3.97012L7.03985 3.97012C8.2007 3.97012 8.73137 3.84571 9.41184 3.07993L10.5209 1.85306C11.2354 1.0497 11.6071 0.947115 12.5598 0.947115L17.096 0.947115C18.0396 0.947115 18.4204 1.0497 19.1349 1.85306L20.2348 3.07993C20.9244 3.84571 21.446 3.97012 22.6068 3.97012L26.5155 3.97012C28.1105 3.97012 29.0352 4.82578 29.0352 6.48428L29.0352 19.7798C29.0352 21.4383 28.1105 22.294 26.5155 22.294ZM14.9866 19.9814C18.8754 19.9814 22.0244 16.8543 22.0244 12.9274C22.0244 9.00405 18.9064 5.87694 14.9866 5.87694C11.0942 5.87694 7.9544 9.00405 7.9544 12.9274C7.9544 16.8543 11.0942 19.9814 14.9866 19.9814ZM14.9866 19.0206C11.6284 19.0206 8.92081 16.3053 8.92081 12.9274C8.92081 9.55301 11.634 6.8342 14.9866 6.8342C18.3483 6.8342 21.0579 9.55301 21.0579 12.9274C21.0579 16.3053 18.3483 19.0206 14.9866 19.0206ZM22.7551 8.31951C22.7551 9.16248 23.4366 9.7876 24.2359 9.7876C25.0042 9.7876 25.6821 9.12236 25.6821 8.31951C25.6821 7.56388 25.0042 6.86411 24.2359 6.86411C23.4366 6.86411 22.7551 7.56388 22.7551 8.31951Z" fill="#ffffff" fill-opacity="0.85"/>
 </g>
</svg>
