<?xml version="1.0" encoding="UTF-8"?>
<!--Generator: Apple Native CoreSVG 232.5-->
<!DOCTYPE svg
PUBLIC "-//W3C//DTD SVG 1.1//EN"
       "http://www.w3.org/Graphics/SVG/1.1/DTD/svg11.dtd">
<svg version="1.1" xmlns="http://www.w3.org/2000/svg" xmlns:xlink="http://www.w3.org/1999/xlink" width="95.7775" height="95.7912">
 <g>
  <rect height="95.7912" opacity="0" width="95.7775" x="0" y="0"/>
  <path d="M47.8712 95.7423C74.2032 95.7423 95.7775 74.1544 95.7775 47.8712C95.7775 21.5743 74.1896 0 47.8575 0C21.5743 0 0 21.5743 0 47.8712C0 74.1544 21.5879 95.7423 47.8712 95.7423Z" fill="#ffffff" fill-opacity="0.85"/>
  <path d="M33.8086 69.9825C32.75 69.9825 32.0175 69.2774 32.0175 68.3653C32.0175 67.9024 32.1914 67.5703 32.4394 67.1347L45.6191 47.7715L32.75 28.7091C32.4472 28.2189 32.2734 27.8868 32.2734 27.3966C32.2734 26.4004 33.0606 25.6406 34.0489 25.6406C34.9142 25.6406 35.3634 25.959 35.8673 26.6915L47.8614 44.8203L48.1056 44.8203L60.1641 26.7051C60.6407 25.959 61.1036 25.6406 61.8575 25.6406C62.9162 25.6406 63.6623 26.3594 63.6623 27.2716C63.6623 27.7071 63.4885 28.0802 63.2131 28.5158L50.0607 47.8047L63.0099 66.9746C63.3068 67.4316 63.4943 67.7774 63.4943 68.2403C63.4943 69.2774 62.7345 69.9825 61.7052 69.9825C60.8809 69.9825 60.4454 69.6778 59.9141 68.9044L47.9141 50.7892L47.6485 50.7892L35.5294 68.9044C35.0196 69.6778 34.5762 69.9825 33.8086 69.9825Z" fill="#1e1e1e"/>
 </g>
</svg>
