<?xml version="1.0" encoding="UTF-8"?>
<!--Generator: Apple Native CoreSVG 232.5-->
<!DOCTYPE svg
PUBLIC "-//W3C//DTD SVG 1.1//EN"
       "http://www.w3.org/Graphics/SVG/1.1/DTD/svg11.dtd">
<svg version="1.1" xmlns="http://www.w3.org/2000/svg" xmlns:xlink="http://www.w3.org/1999/xlink" width="17.2895" height="17.3231">
 <g>
  <rect height="17.3231" opacity="0" width="17.2895" x="0" y="0"/>
  <path d="M2.63049 17.3231L14.652 17.3231C16.3864 17.3231 17.2895 16.3989 17.2895 14.6965L17.2895 2.66017C17.2895 0.957816 16.3864 0.0335932 14.652 0.0335932L2.63049 0.0335932C0.905864 0.0335932 0 0.933988 0 2.66017L0 14.6965C0 16.4227 0.905864 17.3231 2.63049 17.3231Z" fill="#ffc107"/>
  <path d="M7.60509 13.3195C7.4418 13.3195 7.33711 13.2602 7.22382 13.1223L4.29454 9.7137C4.2254 9.61682 4.17969 9.50744 4.17969 9.40235C4.17969 9.19492 4.35275 9.03749 4.54182 9.03749C4.68167 9.03749 4.78402 9.0832 4.88754 9.21563L7.58712 12.3789L12.4953 4.71642C12.5824 4.59923 12.7098 4.51329 12.8328 4.51329C13.0207 4.51329 13.2031 4.6797 13.2031 4.87151C13.2031 4.95979 13.1563 5.06488 13.1137 5.1434L7.97542 13.1223C7.86878 13.2477 7.75432 13.3195 7.60509 13.3195Z" fill="#1e1e1e"/>
 </g>
</svg>
