<?xml version="1.0" encoding="UTF-8"?>
<!--Generator: Apple Native CoreSVG 232.5-->
<!DOCTYPE svg
PUBLIC "-//W3C//DTD SVG 1.1//EN"
       "http://www.w3.org/Graphics/SVG/1.1/DTD/svg11.dtd">
<svg version="1.1" xmlns="http://www.w3.org/2000/svg" xmlns:xlink="http://www.w3.org/1999/xlink" width="47.8887" height="47.8956">
 <g>
  <rect height="47.8956" opacity="0" width="47.8887" x="0" y="0"/>
  <path d="M2.64751 14.0938C9.57423 19.6358 18.4219 22.837 27.8945 22.7247C34.5664 22.6475 40.8721 20.877 46.3369 17.7617L45.7363 16.2226C40.4609 19.2793 34.3486 21.0117 27.8769 21.124C18.6367 21.2715 10.0108 18.0391 3.32918 12.5605ZM0.896502 26.9092C13.5215 37.4327 31.1055 39.4063 45.5606 32.4786L45.7334 30.5576C31.3243 37.9239 13.5049 35.9434 1.03129 24.8721ZM12.2325 43.5411L14.1944 44.2764C13.4376 42.2793 12.9278 40.2206 12.6436 38.0574C10.0089 23.9374 15.2687 10.0449 25.4034 1.0147L23.4913 0.584984C13.5177 9.94822 8.53817 23.9608 11.0606 38.2645C11.2676 40.0438 11.6768 41.8447 12.2325 43.5411ZM28.4092 46.3448L29.9903 45.8096C25.794 39.4346 23.3741 31.8457 23.3741 23.7569C23.3741 15.7315 25.7296 8.24127 29.8731 1.93073L28.3809 1.25688C24.1533 7.79985 21.7559 15.5332 21.7559 23.7569C21.7559 32.0215 24.1719 39.7901 28.4092 46.3448ZM43.0879 36.9991L43.9757 35.6846C36.1241 31.2539 30.8214 23.0225 30.3477 13.4346C30.1583 9.66505 30.7862 5.97268 32.0948 2.6016L30.5567 2.11233C29.21 5.63576 28.5577 9.49513 28.7471 13.5117C29.1856 23.5713 34.8193 32.3057 43.0879 36.9991ZM12.9532 22.6426C14.6944 22.6426 16.1397 21.1905 16.1397 19.4248C16.1397 17.6768 14.6944 16.2315 12.9532 16.2315C11.1807 16.2315 9.73538 17.6768 9.73538 19.4248C9.73538 21.1905 11.1807 22.6426 12.9532 22.6426ZM31.584 24.9678C33.1954 24.9678 34.5284 23.6172 34.5284 21.9746C34.5284 20.3633 33.1954 19.0127 31.584 19.0127C29.9239 19.0127 28.5908 20.3633 28.5908 21.9746C28.5908 23.6172 29.9239 24.9678 31.584 24.9678ZM24.8711 38.921C26.6543 38.921 28.0401 37.5352 28.0401 35.7627C28.0401 33.9971 26.6543 32.6045 24.8711 32.6045C23.0987 32.6045 21.7061 33.9971 21.7061 35.7627C21.7061 37.5352 23.0987 38.921 24.8711 38.921ZM23.9356 47.8712C37.1016 47.8712 47.8887 37.0772 47.8887 23.9356C47.8887 10.7871 37.0948 0 23.9287 0C10.7871 0 0 10.7871 0 23.9356C0 37.0772 10.794 47.8712 23.9356 47.8712ZM23.9356 46.1856C11.6866 46.1856 1.68561 36.1846 1.68561 23.9356C1.68561 11.6866 11.6797 1.68561 23.9287 1.68561C36.1778 1.68561 46.2031 11.6866 46.2031 23.9356C46.2031 36.1846 36.1846 46.1856 23.9356 46.1856Z" fill="#ffffff" fill-opacity="0.85"/>
 </g>
</svg>
