<?xml version="1.0" encoding="UTF-8"?>
<!--Generator: Apple Native CoreSVG 232.5-->
<!DOCTYPE svg
PUBLIC "-//W3C//DTD SVG 1.1//EN"
       "http://www.w3.org/Graphics/SVG/1.1/DTD/svg11.dtd">
<svg version="1.1" xmlns="http://www.w3.org/2000/svg" xmlns:xlink="http://www.w3.org/1999/xlink" width="29.9732" height="23.9622">
 <g>
  <rect height="23.9622" opacity="0" width="29.9732" x="0" y="0"/>
  <path d="M3.41963 23.2411L26.5535 23.2411C28.8011 23.2411 29.9732 22.0396 29.9732 19.8265L29.9732 6.43401C29.9732 4.22094 28.8011 3.02301 26.5535 3.02301L22.7216 3.02301C21.6638 3.02301 21.4048 2.95699 20.733 2.21254L19.626 0.969419C18.9455 0.225475 18.4352 0 17.2281 0L12.4277 0C11.2115 0 10.7103 0.225475 10.0207 0.969419L8.91365 2.21254C8.26924 2.92601 7.97014 3.02301 6.9342 3.02301L3.41963 3.02301C1.17762 3.02301 0 4.22094 0 6.43401L0 19.8265C0 22.0396 1.17762 23.2411 3.41963 23.2411ZM14.9866 20.0078C11.0942 20.0078 7.9544 16.8807 7.9544 12.9538C7.9544 9.03046 11.0942 5.90335 14.9866 5.90335C18.9064 5.90335 22.0244 9.03046 22.0244 12.9538C22.0244 16.8807 18.8754 20.0078 14.9866 20.0078ZM14.9866 19.047C18.3483 19.047 21.0579 16.3318 21.0579 12.9538C21.0579 9.57942 18.3483 6.86061 14.9866 6.86061C11.634 6.86061 8.92081 9.57942 8.92081 12.9538C8.92081 16.3318 11.6284 19.047 14.9866 19.047ZM22.8201 8.35506C22.8201 7.58318 23.5087 6.88544 24.3242 6.88544C25.0905 6.88544 25.7756 7.58318 25.7756 8.35506C25.7756 9.15588 25.0905 9.84296 24.3242 9.81909C23.5087 9.79167 22.8201 9.196 22.8201 8.35506Z" fill="#ffffff" fill-opacity="0.85"/>
 </g>
</svg>
