<?xml version="1.0" encoding="UTF-8"?>
<!--Generator: Apple Native CoreSVG 232.5-->
<!DOCTYPE svg
PUBLIC "-//W3C//DTD SVG 1.1//EN"
       "http://www.w3.org/Graphics/SVG/1.1/DTD/svg11.dtd">
<svg version="1.1" xmlns="http://www.w3.org/2000/svg" xmlns:xlink="http://www.w3.org/1999/xlink" width="17.2895" height="17.3231">
 <g>
  <rect height="17.3231" opacity="0" width="17.2895" x="0" y="0"/>
  <path d="M2.63049 17.3231L14.652 17.3231C16.3864 17.3231 17.2895 16.3989 17.2895 14.6965L17.2895 2.66017C17.2895 0.957816 16.3864 0.0335932 14.652 0.0335932L2.63049 0.0335932C0.905864 0.0335932 0 0.933988 0 2.66017L0 14.6965C0 16.4227 0.905864 17.3231 2.63049 17.3231ZM2.65705 16.5945C1.39222 16.5945 0.72855 15.9363 0.72855 14.6606L0.72855 2.69611C0.72855 1.42034 1.39222 0.762143 2.65705 0.762143L14.6324 0.762143C15.8594 0.762143 16.5609 1.42034 16.5609 2.69611L16.5609 14.6606C16.5609 15.9363 15.8594 16.5945 14.6324 16.5945Z" fill="#ffffff" fill-opacity="0.85"/>
  <path d="M7.60626 13.2953C7.75275 13.2953 7.87151 13.2234 7.97542 13.0965L13.0852 5.16801C13.125 5.08519 13.1719 4.98284 13.1719 4.89456C13.1719 4.70119 12.9922 4.54454 12.8098 4.54454C12.6894 4.54454 12.5648 4.63048 12.4777 4.74494L7.58829 12.3668L4.90512 9.21563C4.80433 9.08593 4.70199 9.04296 4.56487 9.04296C4.37424 9.04296 4.21095 9.19492 4.21095 9.39962C4.21095 9.509 4.25665 9.60861 4.32306 9.70276L7.2332 13.0965C7.34375 13.2359 7.45274 13.2953 7.60626 13.2953Z" fill="#ffffff" fill-opacity="0.85"/>
 </g>
</svg>
