<?xml version="1.0" encoding="UTF-8"?>
<!--Generator: Apple Native CoreSVG 232.5-->
<!DOCTYPE svg
PUBLIC "-//W3C//DTD SVG 1.1//EN"
       "http://www.w3.org/Graphics/SVG/1.1/DTD/svg11.dtd">
<svg version="1.1" xmlns="http://www.w3.org/2000/svg" xmlns:xlink="http://www.w3.org/1999/xlink" width="47.8887" height="47.8956">
 <g>
  <rect height="47.8956" opacity="0" width="47.8887" x="0" y="0"/>
  <path d="M23.9356 47.8712C37.1016 47.8712 47.8887 37.0772 47.8887 23.9356C47.8887 10.7871 37.0948 0 23.9287 0C10.7871 0 0 10.7871 0 23.9356C0 37.0772 10.794 47.8712 23.9356 47.8712Z" fill="#ffffff" fill-opacity="0.85"/>
  <path d="M7.78321 23.9356C7.78321 19.7481 10.582 16.8135 14.5821 16.8135C16.9288 16.8311 18.7618 18.0146 20.917 20.002L23.9776 22.8418L27.0098 20.002C29.3897 17.7481 31.1455 16.8135 33.3379 16.8135C37.3448 16.8135 40.1964 19.7481 40.1964 23.9356C40.1964 28.1163 37.3448 30.9981 33.3379 30.9981C31.1172 30.9981 29.3789 30.0811 27.0098 27.8624L23.9776 25.0294L20.917 27.8624C18.7549 29.8565 16.9219 30.9981 14.5821 30.9981C10.582 30.9981 7.78321 28.1163 7.78321 23.9356ZM9.41413 23.9356C9.41413 27.1358 11.5342 29.3565 14.5821 29.3565C16.416 29.3565 17.8086 28.4444 19.75 26.7061L22.8105 23.9356L19.75 21.1475C17.6192 19.2022 16.251 18.4727 14.5821 18.4551C11.5342 18.4551 9.41413 20.7354 9.41413 23.9356ZM25.1163 23.9356L28.1524 26.7061C30.1114 28.4444 31.504 29.3565 33.3379 29.3565C36.4033 29.3565 38.5479 27.1182 38.5479 23.9356C38.5479 20.7354 36.3858 18.4551 33.3379 18.4551C31.6583 18.4727 30.2833 19.2022 28.1524 21.1475Z" fill="#1e1e1e"/>
 </g>
</svg>
