<?xml version="1.0" encoding="UTF-8"?>
<!--Generator: Apple Native CoreSVG 232.5-->
<!DOCTYPE svg
PUBLIC "-//W3C//DTD SVG 1.1//EN"
       "http://www.w3.org/Graphics/SVG/1.1/DTD/svg11.dtd">
<svg version="1.1" xmlns="http://www.w3.org/2000/svg" xmlns:xlink="http://www.w3.org/1999/xlink" width="47.8887" height="47.8956">
 <g>
  <rect height="47.8956" opacity="0" width="47.8887" x="0" y="0"/>
  <path d="M23.9356 47.8712C37.1016 47.8712 47.8887 37.0772 47.8887 23.9356C47.8887 10.7871 37.0948 0 23.9287 0C10.7871 0 0 10.7871 0 23.9356C0 37.0772 10.794 47.8712 23.9356 47.8712Z" fill="#ffffff" fill-opacity="0.85"/>
  <path d="M21.3243 35.5928C20.9336 35.5928 20.6543 35.4444 20.3711 35.0996L13.0655 26.5782C12.8926 26.336 12.7608 26.0625 12.7608 25.7998C12.7608 25.2813 13.1934 24.8877 13.6768 24.8877C14.0157 24.8877 14.2716 25.0019 14.5304 25.333L21.2793 33.2412L33.5498 14.085C33.7851 13.792 34.0859 13.5772 34.3867 13.5772C34.8633 13.5772 35.3194 13.9932 35.3194 14.4727C35.3194 14.6934 35.2129 14.9561 35.0957 15.1524L22.2501 35.0996C22.001 35.4131 21.6973 35.5928 21.3243 35.5928Z" fill="#1e1e1e"/>
 </g>
</svg>
